<?xml version="1.0" encoding="UTF-8"?>
<svg width="752pt" height="752pt" version="1.1" viewBox="0 0 752 752" xmlns="http://www.w3.org/2000/svg">
 <g fill="#00449e">
  <path d="m468.06 285.24c-10.07 0-19.52 4.4453-25.934 12.148-2.25 2.6992-1.8555 6.6953 0.84375 8.9453s6.6953 1.8555 8.9453-0.84375c3.9922-4.8359 9.8984-7.5938 16.145-7.5938 6.2422 0 12.148 2.7578 16.145 7.5938 1.2383 1.5195 3.0391 2.3047 4.8945 2.3047 1.4062 0 2.8672-0.50781 4.0508-1.4609 2.6992-2.25 3.0391-6.2422 0.84375-8.9453-6.4727-7.7031-15.922-12.148-25.934-12.148z"/>
  <path d="m498.88 293.62c1.2383 1.5742 3.0938 2.418 4.9492 2.418 1.4062 0 2.7578-0.44922 3.9375-1.4062 2.7578-2.1953 3.207-6.1875 1.0117-8.9453-9.957-12.543-24.809-19.688-40.84-19.688-15.863 0-30.715 7.0859-40.668 19.52-2.1953 2.7578-1.7422 6.75 0.95703 8.9453 2.7578 2.1953 6.75 1.7422 8.9453-0.95703 7.5391-9.3945 18.73-14.738 30.715-14.738 12.203-0.054687 23.453 5.4023 30.992 14.852z"/>
  <path d="m415.01 281.36c2.6992 2.25 6.6953 1.8555 8.9453-0.84375 10.914-13.219 27-20.812 44.102-20.812 17.102 0 33.188 7.5938 44.102 20.812 1.2383 1.5195 3.0938 2.3047 4.8945 2.3047 1.4062 0 2.8672-0.44922 4.0508-1.4609 2.6992-2.25 3.0938-6.2422 0.84375-8.9453-13.332-16.145-32.965-25.426-53.891-25.426-20.926 0-40.559 9.2812-53.891 25.426-2.25 2.6992-1.8555 6.6953 0.84375 8.9453z"/>
  <path d="m503.61 443.87c-11.305 0-20.477 9.2266-20.477 20.477 0 11.305 9.2266 20.477 20.477 20.477 11.305 0 20.477-9.2266 20.477-20.477-0.003907-11.305-9.1719-20.477-20.477-20.477zm0 28.297c-4.2734 0-7.8203-3.4883-7.8203-7.8203 0-4.2734 3.4883-7.8203 7.8203-7.8203 4.2734 0 7.8203 3.4883 7.8203 7.8203-0.058594 4.332-3.5469 7.8203-7.8203 7.8203z"/>
  <path d="m352.91 420.92c-14.852 0-27 12.094-27 27 0 14.852 12.094 27 27 27 14.852 0 27-12.094 27-27s-12.094-27-27-27zm0 41.234c-7.875 0-14.289-6.4141-14.289-14.289s6.4141-14.289 14.289-14.289 14.289 6.4141 14.289 14.289-6.4141 14.289-14.289 14.289z"/>
  <path d="m501.08 399.66c-1.5742-0.84375-3.4883-0.22656-4.2734 1.293l-4.7266 8.9453c-0.84375 1.5742-0.22656 3.4883 1.293 4.2734 0.44922 0.22656 1.0117 0.39453 1.4609 0.39453 1.125 0 2.25-0.61719 2.8125-1.6875l4.7266-8.9453c0.84375-1.5195 0.28125-3.4297-1.293-4.2734z"/>
  <path d="m504.45 414.22c0.44922 0.22656 1.0117 0.39453 1.4609 0.39453 1.125 0 2.25-0.61719 2.8125-1.6875l4.7266-8.9453c0.84375-1.5742 0.22656-3.4883-1.293-4.2734-1.5742-0.84375-3.4883-0.22656-4.2734 1.293l-4.7266 8.9453c-0.84766 1.5195-0.22656 3.4297 1.293 4.2734z"/>
  <path d="m489.94 399.66c-1.5742-0.84375-3.4883-0.22656-4.2734 1.293l-4.7266 8.9453c-0.84375 1.5742-0.22656 3.4883 1.293 4.2734 0.44922 0.22656 1.0117 0.39453 1.4609 0.39453 1.125 0 2.25-0.61719 2.8125-1.6875l4.7266-8.9453c0.84766-1.5195 0.28516-3.4297-1.293-4.2734z"/>
  <path d="m406.91 433.35c0.22656-0.50781 0.44922-1.0117 0.5625-1.5742 0.61719-2.3047 0.28125-4.7266-0.89844-6.8047l-7.0859-12.262c-1.1797-2.082-3.1484-3.543-5.457-4.1641-0.5625-0.16797-1.125-0.22656-1.6875-0.28125-0.054688-0.5625-0.11328-1.125-0.28125-1.6875-0.61719-2.3047-2.082-4.2734-4.1641-5.457l-12.262-7.0859c-2.6445-1.5195-5.793-1.5742-8.3828-0.28125-1.6328-2.3633-4.332-3.9375-7.4258-3.9375h-14.117c-3.0938 0-5.793 1.5742-7.4258 3.9375-0.50781-0.22656-1.0117-0.44922-1.5742-0.5625-2.3047-0.61719-4.7266-0.28125-6.8047 0.89844l-12.262 7.0859c-0.50781 0.28125-1.0117 0.67578-1.4609 1.0703l-20.758-11.363 3.9922-10.238c1.125-2.8672 1.6875-5.9609 1.6875-9.0547v-4.9492c0-6.6953-5.3984-12.094-12.094-12.094l-69.473-0.003906c-6.6953 0-12.094 5.3984-12.094 12.094v3.3203c0 4.8945 1.8555 9.6172 5.1758 13.219l40.559 43.82-6.4141-0.003906c-1.7422 0-3.1484 1.4062-3.1484 3.1484s1.4062 3.1484 3.1484 3.1484h8.4922v8.1562h-3.7695c-1.7422 0-3.1484 1.4062-3.1484 3.1484s1.4062 3.1484 3.1484 3.1484h25.312c1.7422 0 3.1484-1.4062 3.1484-3.1484 0-0.78906-0.28125-1.4609-0.73047-2.0234h15.469v12.32c0 3.0938 1.5742 5.793 3.9375 7.4258-1.2383 2.5859-1.2383 5.7383 0.28125 8.3828l7.0859 12.262c1.1797 2.082 3.1484 3.543 5.457 4.1641 0.5625 0.16797 1.125 0.22656 1.6875 0.28125 0.22656 2.8672 1.8008 5.5703 4.4453 7.1445l12.262 7.0859c2.6445 1.5195 5.793 1.5742 8.3828 0.28125 1.6328 2.3633 4.332 3.9375 7.4258 3.9375l14.234 0.003906c3.0938 0 5.793-1.5742 7.4258-3.9375 2.5859 1.2383 5.7383 1.2383 8.3828-0.28125l12.262-7.0859c2.6445-1.5195 4.2734-4.2734 4.4453-7.1445 0.5625-0.054687 1.125-0.11328 1.6875-0.28125 2.3047-0.61719 4.2734-2.082 5.457-4.1641l7.0859-12.262c1.1797-2.082 1.5195-4.5 0.89844-6.8047-0.16797-0.5625-0.33594-1.0703-0.5625-1.5742 2.3633-1.6328 3.9375-4.332 3.9375-7.4258v-14.117c-0.058594-3.043-1.6328-5.8008-3.9961-7.4297zm-135.45-15.754h-9.6758l-36.395-39.32h15.918c1.7422 0 3.1484-1.4062 3.1484-3.1484 0-1.7422-1.4062-3.1484-3.1484-3.1484h-20.867c-0.16797-0.61719-0.28125-1.293-0.28125-1.9688v-2.6992h68.289v4.332c0 1.5195-0.28125 3.0391-0.84375 4.4453zm26.945 15.977v-0.84375c0.054687 0.22656 0.16797 0.44922 0.28125 0.61719-0.054688 0.11328-0.16797 0.17188-0.28125 0.22656zm7.6523-20.867-7.0352 12.262c-0.89844 1.5742-1.293 3.2617-1.1797 4.9492h-17.551l10.52-27.168 16.09 8.7734c-0.33984 0.39453-0.5625 0.78906-0.84375 1.1836zm92.082 38.531h-2.6445c-3.6562 0-6.8633 2.4766-7.8203 6.0195-0.95703 3.543 0.61719 7.2578 3.7695 9.1133l2.3047 1.3516-3.3203 5.793-2.3047-1.3516c-3.1484-1.8008-7.1992-1.293-9.7891 1.293-2.5859 2.5859-3.0938 6.582-1.293 9.7891l1.3516 2.3047-5.793 3.3203-1.3516-2.3047c-1.8555-3.1484-5.5703-4.7266-9.1133-3.7695-3.543 0.95703-6.0195 4.1641-6.0195 7.8203v2.6445h-6.6953v-2.6445c0-3.6562-2.4766-6.8633-6.0195-7.8203-3.543-0.95703-7.2578 0.61719-9.1133 3.7695l-1.3516 2.3047-5.793-3.3203 1.3516-2.3047c1.8008-3.1484 1.293-7.1992-1.293-9.7891-2.5859-2.5859-6.582-3.0938-9.7891-1.293l-2.3047 1.3516-3.3203-5.793 2.3047-1.3516c3.1484-1.8555 4.7266-5.5703 3.7695-9.1133-0.95703-3.543-4.1641-6.0195-7.8203-6.0195h-2.6445v-6.6953h2.6445c3.6562 0 6.8633-2.4766 7.8203-6.0195 0.95703-3.543-0.61719-7.2578-3.7695-9.1133l-2.3047-1.3516 3.3203-5.793 2.3047 1.3516c3.1484 1.8555 7.1992 1.293 9.7891-1.293 2.5859-2.5859 3.0938-6.582 1.293-9.7891l-1.3516-2.3047 5.793-3.3203 1.3516 2.3047c1.8555 3.1484 5.5703 4.7266 9.1133 3.7695 3.543-0.95703 6.0195-4.1641 6.0195-7.8203v-2.6445h6.6953v2.6445c0 3.6562 2.4766 6.8633 6.0195 7.8203 3.543 0.95703 7.2578-0.61719 9.1133-3.7695l1.3516-2.3047 5.793 3.3203-1.3516 2.3047c-1.8008 3.1484-1.293 7.1992 1.293 9.7891 2.5859 2.5859 6.582 3.0938 9.7891 1.293l2.3047-1.3516 3.3203 5.793-2.3047 1.3516c-3.1484 1.8008-4.7266 5.5703-3.7695 9.1133 0.95703 3.543 4.1641 6.0195 7.8203 6.0195h2.6445z"/>
  <path d="m260.38 371.87h-10.629c-1.7422 0-3.1484 1.4062-3.1484 3.1484s1.4062 3.1484 3.1484 3.1484h10.574c1.7422 0 3.1484-1.4062 3.1484-3.1484 0.058594-1.6875-1.3477-3.1484-3.0938-3.1484z"/>
  <path d="m273.26 371.87h-4.4453c-1.7422 0-3.1484 1.4062-3.1484 3.1484s1.4062 3.1484 3.1484 3.1484h4.4453c1.7422 0 3.1484-1.4062 3.1484-3.1484 0.058594-1.6875-1.4062-3.1484-3.1484-3.1484z"/>
  <path d="m537.98 440.72c1.125-1.7422 1.7422-3.8242 1.7422-6.0195v-31.051c0-8.9453-5.9062-16.09-15.02-18.168-14.117-3.207-29.98-4.7812-54.395-5.1758v-0.33594l-1.0703-26.156c-0.054687-1.9141-0.50781-5.2891-2.6445-6.918v-0.44922-13.5l3.9375-3.3203c2.6992-2.25 3.0391-6.2422 0.78906-8.9453-2.25-2.6992-6.2422-3.0391-8.9453-0.78906l-4.7266 3.9922c-2.418 2.0234-3.7109 4.668-3.7109 7.4805v15.074 0.44922c-2.082 1.5742-2.5312 5.0078-2.6445 6.918l-1.0703 26.156v0.28125h-3.0391l-2.9805-52.031c3.0938-1.4609 5.0625-4.1055 5.0625-7.3672 0-1.7422-0.73047-7.4805-10.125-8.5508-26.719-3.0391-60.527-2.1953-82.129 0-9.4492 0.95703-10.18 6.8047-10.18 8.5508 0 3.207 1.9141 5.8516 4.9492 7.3125l-4.1055 43.652c-9.8984 0.73047-19.352 3.3203-28.238 7.7617-3.1484 1.5742-4.3867 5.3984-2.8125 8.5508 1.2383 2.418 3.7695 3.7109 6.3008 3.4883 8.9453-4.7812 19.125-7.4805 29.98-7.4805 29.363 0 54.172 19.969 61.539 47.027 0.73047 2.5312 1.293 5.1172 1.7422 7.707l0.054687 1.4062c0.28125 2.5312 0.44922 5.0625 0.44922 7.6484 0 1.5195-0.054688 2.9805-0.16797 4.4453l0.054688 2.7578c0.054687 5.1172 4.4453 9.2266 9.7891 9.2266h35.496v0.054688c0 23.008 18.73 41.738 41.738 41.738 23.008 0 41.738-18.73 41.738-41.738-0.046876-8.832-2.7461-16.934-7.3594-23.684zm-81.281-60.527 1.0703-26.156c0-0.50781 0.054687-0.95703 0.11328-1.293 1.6328 0.22656 3.3203 0.22656 4.9492 0 0.054687 0.33594 0.11328 0.78906 0.11328 1.293l1.0703 26.156h-7.3164zm-85.277-6.4102c-3.543-0.84375-7.1992-1.4609-10.914-1.8555l3.9922-42.527h11.305zm53.324 48.148c-7.0312-19.688-21.996-35.605-41.008-43.934l4.7812-48.547h43.09l3.0391 52.652-3.207-1.9688c-0.84375-0.50781-1.9141-0.61719-2.8672-0.22656l-2.1953 0.89844-1.8555-3.3203 6.3008-5.3984c1.3516-1.125 1.4609-3.1484 0.33594-4.5-1.125-1.3516-3.1484-1.4609-4.5-0.33594l-7.3125 6.2422c-0.22656 0.054687-0.39453 0.16797-0.5625 0.22656-0.5625 0.33594-1.0117 0.78906-1.293 1.3516l-7.5938 6.5859c-1.3516 1.125-1.4609 3.1484-0.33594 4.5 0.61719 0.73047 1.5195 1.125 2.418 1.125 0.73047 0 1.4609-0.22656 2.082-0.78906l5.5703-4.7812 0.84375 1.5742-0.95703 0.39453c-1.4609 0.61719-2.25 2.1367-1.8555 3.6562l8.3242 34.594zm-0.28125-33.469 5.1172-2.082 5.5703 3.375 1.8555 32.176h-4.5zm39.434 63.113h-34.652v-16.934h10.406c5.625 0 10.18-4.5547 10.18-10.18v-0.16797l-1.8008-31.332c36.73-0.33594 56.812 1.0117 73.801 4.8945 1.5195 0.33594 5.1172 1.6328 5.1172 5.793v26.215c-6.6953-4.5547-14.738-7.1992-23.402-7.1992-18.5-0.058593-34.25 12.148-39.648 28.91zm39.715 41.797c-15.977 0-29.027-12.992-29.027-29.027 0-15.977 12.992-29.027 29.027-29.027 15.977 0 29.027 12.992 29.027 29.027-0.003907 16.031-13.055 29.027-29.027 29.027z"/>
 </g>
</svg>
